<?xml version="1.0" encoding="UTF-8"?>
<svg version="1.1" xmlns="http://www.w3.org/2000/svg" width="94" height="94">
<path d="M0 0 C31.02 0 62.04 0 94 0 C94 31.02 94 62.04 94 94 C62.98 94 31.96 94 0 94 C0 62.98 0 31.96 0 0 Z " fill="#5768F6" transform="translate(0,0)"/>
<path d="M0 0 C31.02 0 62.04 0 94 0 C94 31.02 94 62.04 94 94 C62.98 94 31.96 94 0 94 C0 62.98 0 31.96 0 0 Z M10 11 C7.27788381 14.80215419 6.61977918 17.42093307 6.59594727 22.07202148 C6.58326309 23.27354355 6.57057892 24.47506561 6.55751038 25.71299744 C6.56044601 27.00266922 6.56338165 28.292341 6.56640625 29.62109375 C6.5618411 30.96721153 6.55653453 32.31332699 6.55052185 33.65943909 C6.5416035 36.47626228 6.54399882 39.29280177 6.55395508 42.10961914 C6.56544073 45.70879479 6.54523469 49.3069887 6.51603794 52.90603542 C6.49763824 55.68486185 6.49797581 58.46345465 6.50367546 61.24232674 C6.5039022 63.21093542 6.48703821 65.17952225 6.46986389 67.14805603 C6.42684851 75.93395339 6.42684851 75.93395339 11 83 C14.80215419 85.72211619 17.42093307 86.38022082 22.07202148 86.40405273 C23.27354355 86.41673691 24.47506561 86.42942108 25.71299744 86.44248962 C27.00266922 86.43955399 28.292341 86.43661835 29.62109375 86.43359375 C30.96721153 86.4381589 32.31332699 86.44346547 33.65943909 86.44947815 C36.47626228 86.4583965 39.29280177 86.45600118 42.10961914 86.44604492 C45.70879479 86.43455927 49.3069887 86.45476531 52.90603542 86.48396206 C55.68486185 86.50236176 58.46345465 86.50202419 61.24232674 86.49632454 C63.21093542 86.4960978 65.17952225 86.51296179 67.14805603 86.53013611 C75.93395339 86.57315149 75.93395339 86.57315149 83 82 C85.72211619 78.19784581 86.38022082 75.57906693 86.40405273 70.92797852 C86.41673691 69.72645645 86.42942108 68.52493439 86.44248962 67.28700256 C86.43955399 65.99733078 86.43661835 64.707659 86.43359375 63.37890625 C86.4381589 62.03278847 86.44346547 60.68667301 86.44947815 59.34056091 C86.4583965 56.52373772 86.45600118 53.70719823 86.44604492 50.89038086 C86.43455927 47.29120521 86.45476531 43.6930113 86.48396206 40.09396458 C86.50236176 37.31513815 86.50202419 34.53654535 86.49632454 31.75767326 C86.4960978 29.78906458 86.51296179 27.82047775 86.53013611 25.85194397 C86.57315149 17.06604661 86.57315149 17.06604661 82 10 C78.19784581 7.27788381 75.57906693 6.61977918 70.92797852 6.59594727 C69.72645645 6.58326309 68.52493439 6.57057892 67.28700256 6.55751038 C65.35249489 6.56191383 65.35249489 6.56191383 63.37890625 6.56640625 C62.03278847 6.5618411 60.68667301 6.55653453 59.34056091 6.55052185 C56.52373772 6.5416035 53.70719823 6.54399882 50.89038086 6.55395508 C47.29120521 6.56544073 43.6930113 6.54523469 40.09396458 6.51603794 C37.31513815 6.49763824 34.53654535 6.49797581 31.75767326 6.50367546 C29.78906458 6.5039022 27.82047775 6.48703821 25.85194397 6.46986389 C17.06604661 6.42684851 17.06604661 6.42684851 10 11 Z " fill="#0A0A0A" transform="translate(0,0)"/>
</svg>
